<svg version="1.1" id="Layer_1" xmlns="http://www.w3.org/2000/svg" xmlns:xlink="http://www.w3.org/1999/xlink" x="0px" y="0px" viewBox="839.6 -144.2 371.7 400" style="enable-background:new 839.6 -144.2 371.7 400;" xml:space="preserve">
 <style type="text/css">
  .st0{fill:#262626;}
	.st1{fill:#0000FF;}
 </style>
 <g>
  <g>
   <path class="st0" d="M1067.1-40.4c-35.9,0-71.4,15.4-98.4,45.8v-149.6h-53.5v251.9c0,0,0,0,0,0c0,81.8,66.3,148.1,148.1,148.1
			c81.8,0,148.1-66.3,148.1-148.1S1148.8-40.4,1067.1-40.4 M1063.2,198.7c-50.3,0-91-40.8-91-91c0-50.3,40.8-91,91-91
			c50.3,0,91,40.8,91,91S1113.5,198.7,1063.2,198.7">
   </path>
  </g>
  <g>
   <path class="st1" d="M876.2,182.5c-20.2,0-36.6,16.4-36.6,36.6s16.4,36.6,36.6,36.6c20.2,0,36.6-16.4,36.6-36.6
			S896.4,182.5,876.2,182.5">
   </path>
  </g>
 </g>
</svg>