<svg version="1.1" id="Layer_1" xmlns:x="ns_extend;" xmlns:i="ns_ai;" xmlns:graph="ns_graphs;" xmlns="http://www.w3.org/2000/svg" xmlns:xlink="http://www.w3.org/1999/xlink" x="0px" y="0px" viewBox="0 0 105 105" style="enable-background:new 0 0 105 105;" xml:space="preserve">
 <style type="text/css">
  .st0{fill:#F9A619;}
	.st1{fill:#3B85DB;}
	.st2{fill:#EB3669;}
 </style>
 <metadata>
  <sfw xmlns="ns_sfw;">
   <slices>
   </slices>
   <sliceSourceBounds bottomLeftOrigin="true" height="105" width="105" x="0" y="1">
   </sliceSourceBounds>
  </sfw>
 </metadata>
 <g>
  <path class="st0" d="M94.5,0h-84C4.7,0,0,4.7,0,10.5v26.2c0,5.8,4.7,10.5,10.5,10.5h84c5.8,0,10.5-4.7,10.5-10.5V10.5
		C105,4.7,100.3,0,94.5,0z">
  </path>
  <path class="st1" d="M94.5,57.7H68.2c-5.8,0-10.5,4.7-10.5,10.5v26.2c0,5.8,4.7,10.5,10.5,10.5h26.2c5.8,0,10.5-4.7,10.5-10.5V68.2
		C105,62.5,100.3,57.7,94.5,57.7z">
  </path>
  <path class="st2" d="M23.6,105c13,0,23.6-10.6,23.6-23.6S36.7,57.8,23.6,57.8S0,68.3,0,81.4S10.6,105,23.6,105z">
  </path>
 </g>
</svg>